<svg xmlns="http://www.w3.org/2000/svg" xmlns:xlink="http://www.w3.org/1999/xlink" version="1.1" width="1000" height="1000" viewBox="0 0 1000 1000" xml:space="preserve">
<desc>Created with Fabric.js 3.5.0</desc>
<defs>
</defs>
<rect x="0" y="0" width="100%" height="100%" fill="rgba(255,255,204,0)"/>
<g transform="matrix(6.2476 0 0 6.2476 594.0646 156.6063)" id="OBJECTS">
<path style="stroke: none; stroke-width: 0; stroke-dasharray: none; stroke-linecap: butt; stroke-dashoffset: 0; stroke-linejoin: miter; stroke-miterlimit: 4; is-custom-font: none; font-file-url: none; fill: rgb(51,51,51); fill-rule: nonzero; opacity: 1;" transform=" translate(-336.002, -68.9196)" d="M 323.875 73.91 c 3.907 -2.079 7.621 -4.44 11.769 -6.037 c 2.036 -0.784 4.119 -1.458 6.216 -2.058 c 2.169 -0.621 4.404 -1.256 6.651 -1.488 c 0.279 -0.03 0.287 -0.466 0 -0.446 c -2.3 0.162 -4.582 0.238 -6.861 0.645 c -2.231 0.4 -4.404 1.024 -6.525 1.83 c -4.223 1.606 -8.518 3.668 -11.727 6.921 C 323.076 73.604 323.478 74.12 323.875 73.91" stroke-linecap="round"/>
</g>
<g transform="matrix(6.2476 0 0 6.2476 707.4018 216.1508)" id="OBJECTS">
<path style="stroke: none; stroke-width: 0; stroke-dasharray: none; stroke-linecap: butt; stroke-dashoffset: 0; stroke-linejoin: miter; stroke-miterlimit: 4; is-custom-font: none; font-file-url: none; fill: rgb(51,51,51); fill-rule: nonzero; opacity: 1;" transform=" translate(-354.1425, -78.45)" d="M 374.839 84.383 c -1.974 -5.707 -7.255 -8.713 -12.715 -10.42 c -6.09 -1.905 -12.748 -2.02 -18.94 -0.534 c -1.709 0.411 -3.357 0.985 -4.994 1.634 c -1.556 0.616 -3.478 1.262 -4.635 2.521 c -0.296 0.321 0.043 0.745 0.417 0.669 c 1.452 -0.285 2.801 -1.165 4.173 -1.707 c 1.413 -0.56 2.864 -0.973 4.334 -1.343 c 2.873 -0.724 5.826 -1.09 8.786 -1.123 c 5.756 -0.064 11.873 1.161 16.894 4.079 c 2.603 1.513 5.148 3.544 6.537 6.29 C 374.736 84.531 374.866 84.468 374.839 84.383" stroke-linecap="round"/>
</g>
<g transform="matrix(6.2476 0 0 6.2476 738.3991 196.6869)" id="OBJECTS">
<path style="stroke: none; stroke-width: 0; stroke-dasharray: none; stroke-linecap: butt; stroke-dashoffset: 0; stroke-linejoin: miter; stroke-miterlimit: 4; is-custom-font: none; font-file-url: none; fill: rgb(51,51,51); fill-rule: nonzero; opacity: 1;" transform=" translate(-359.1035, -75.3348)" d="M 374.707 83.444 c -1.413 -4.343 -4.383 -8.205 -7.981 -10.97 c -4.056 -3.118 -8.958 -4.849 -14.01 -5.367 c -2.997 -0.307 -6.049 -0.071 -8.969 0.672 c -0.384 0.099 -0.323 0.744 0.091 0.711 c 5.09 -0.416 10.29 -0.216 15.166 1.429 c 4.27 1.44 8.237 3.984 11.253 7.356 c 1.678 1.875 3.029 4.036 4.084 6.319 C 374.437 83.798 374.777 83.659 374.707 83.444" stroke-linecap="round"/>
</g>
<g transform="matrix(6.2476 0 0 6.2476 574.7633 180.6537)" id="OBJECTS">
<path style="stroke: none; stroke-width: 0; stroke-dasharray: none; stroke-linecap: butt; stroke-dashoffset: 0; stroke-linejoin: miter; stroke-miterlimit: 4; is-custom-font: none; font-file-url: none; fill: rgb(51,51,51); fill-rule: nonzero; opacity: 1;" transform=" translate(-332.9126, -72.7685)" d="M 325.874 77.024 c 2.375 -1.438 4.585 -3.129 7.016 -4.477 c 2.482 -1.375 4.945 -2.748 7.633 -3.679 c 0.261 -0.09 0.164 -0.49 -0.109 -0.422 c -2.766 0.694 -5.574 1.474 -8.118 2.795 c -2.543 1.321 -5.081 2.841 -7.016 4.996 C 324.916 76.641 325.375 77.326 325.874 77.024" stroke-linecap="round"/>
</g>
<g transform="matrix(6.2476 0 0 6.2476 731.5448 163.158)" id="OBJECTS">
<path style="stroke: none; stroke-width: 0; stroke-dasharray: none; stroke-linecap: butt; stroke-dashoffset: 0; stroke-linejoin: miter; stroke-miterlimit: 4; is-custom-font: none; font-file-url: none; fill: rgb(51,51,51); fill-rule: nonzero; opacity: 1;" transform=" translate(-358.0067, -69.9683)" d="M 379.327 76.628 c -1.382 -2.472 -3.035 -4.728 -5.173 -6.594 c -2.092 -1.828 -4.512 -3.269 -7.057 -4.363 c -5.921 -2.547 -12.479 -3.087 -18.829 -2.322 c -1.923 0.231 -3.821 0.569 -5.703 1.026 c -1.915 0.463 -3.9 1.026 -5.677 1.897 c -0.477 0.233 -0.127 0.87 0.323 0.802 c 1.666 -0.253 3.306 -0.707 4.958 -1.045 c 1.609 -0.332 3.223 -0.646 4.852 -0.891 c 3.288 -0.495 6.648 -0.656 9.964 -0.399 c 5.639 0.435 10.98 2.326 15.618 5.577 c 2.469 1.73 4.796 3.922 6.392 6.5 C 379.125 77.025 379.448 76.842 379.327 76.628" stroke-linecap="round"/>
</g>
<g transform="matrix(6.2476 0 0 6.2476 773.8013 365.4271)" id="OBJECTS">
<path style="stroke: none; stroke-width: 0; stroke-dasharray: none; stroke-linecap: butt; stroke-dashoffset: 0; stroke-linejoin: miter; stroke-miterlimit: 4; is-custom-font: none; font-file-url: none; fill: rgb(51,51,51); fill-rule: nonzero; opacity: 1;" transform=" translate(-364.7696, -102.3431)" d="M 362.785 120.149 c -2.438 2.332 -5.277 4.278 -8.327 5.728 c -0.027 0.13 -0.06 0.261 -0.123 0.375 c -0.19 0.332 -0.378 0.665 -0.571 0.995 c 6.5 -2.869 12.134 -7.923 15.865 -13.976 c 4.291 -6.955 6.439 -15.402 6.114 -23.583 c -0.164 -4.136 -0.958 -9.13 -4.042 -12.165 c -0.236 -0.23 -0.549 0.058 -0.432 0.332 c 0.743 1.752 1.501 3.441 2.008 5.286 c 0.503 1.838 0.823 3.696 0.941 5.601 c 0.236 3.824 -0.122 7.723 -0.913 11.466 C 371.746 107.599 368.28 114.895 362.785 120.149" stroke-linecap="round"/>
</g>
<g transform="matrix(6.2476 0 0 6.2476 718.3334 505.3824)" id="OBJECTS">
<path style="stroke: none; stroke-width: 0; stroke-dasharray: none; stroke-linecap: butt; stroke-dashoffset: 0; stroke-linejoin: miter; stroke-miterlimit: 4; is-custom-font: none; font-file-url: none; fill: rgb(51,51,51); fill-rule: nonzero; opacity: 1;" transform=" translate(-355.8924, -124.7433)" d="M 329.479 142.646 c 9.449 1.003 19.157 -0.718 27.711 -4.881 c 8.055 -3.923 14.821 -10.036 19.741 -17.543 c 2.718 -4.153 4.609 -8.69 6.02 -13.444 c 0.065 -0.221 -0.274 -0.308 -0.344 -0.09 c -1.294 4.126 -3.301 8.006 -5.601 11.654 c -2.274 3.611 -5.003 6.908 -8.116 9.815 c -6.692 6.247 -14.864 10.566 -23.813 12.434 c -5.131 1.071 -10.392 1.288 -15.596 0.675 C 328.608 141.163 328.607 142.553 329.479 142.646" stroke-linecap="round"/>
</g>
<g transform="matrix(6.2476 0 0 6.2476 860.3544 367.0638)" id="OBJECTS">
<path style="stroke: none; stroke-width: 0; stroke-dasharray: none; stroke-linecap: butt; stroke-dashoffset: 0; stroke-linejoin: miter; stroke-miterlimit: 4; is-custom-font: none; font-file-url: none; fill: rgb(51,51,51); fill-rule: nonzero; opacity: 1;" transform=" translate(-378.6225, -102.605)" d="M 372.706 125.032 c 4.248 -4.297 7.547 -9.394 9.618 -15.093 c 2.195 -6.032 2.895 -12.521 2.158 -18.896 c -0.422 -3.663 -1.238 -7.299 -2.794 -10.65 c -0.244 -0.523 -1.088 -0.167 -0.926 0.379 c 0.896 3.056 1.725 6.137 2.157 9.3 c 0.426 3.138 0.49 6.334 0.21 9.488 c -0.526 5.946 -2.217 11.739 -5.004 17.01 c -1.562 2.956 -3.421 5.75 -5.61 8.272 C 372.405 124.972 372.583 125.155 372.706 125.032" stroke-linecap="round"/>
</g>
<g transform="matrix(6.2476 0 0 6.2476 849.494 222.0545)" id="OBJECTS">
<path style="stroke: none; stroke-width: 0; stroke-dasharray: none; stroke-linecap: butt; stroke-dashoffset: 0; stroke-linejoin: miter; stroke-miterlimit: 4; is-custom-font: none; font-file-url: none; fill: rgb(51,51,51); fill-rule: nonzero; opacity: 1;" transform=" translate(-376.8843, -79.3951)" d="M 369.981 68.274 c 0.895 0.53 1.691 1.253 2.566 1.822 c 0.899 0.586 1.685 1.269 2.462 2.006 c 1.49 1.409 2.711 3.083 3.743 4.852 c 2.399 4.115 3.764 8.959 4.635 13.622 c 0.048 0.261 0.482 0.208 0.462 -0.06 c -0.399 -5.082 -1.186 -10.094 -3.801 -14.555 c -1.104 -1.882 -2.516 -3.618 -4.161 -5.05 c -0.805 -0.7 -1.703 -1.33 -2.617 -1.875 c -1.02 -0.608 -2.052 -0.786 -3.197 -0.99 C 369.941 68.021 369.854 68.199 369.981 68.274" stroke-linecap="round"/>
</g>
<g transform="matrix(6.2476 0 0 6.2476 758.9367 421.6829)" id="OBJECTS">
<path style="stroke: none; stroke-width: 0; stroke-dasharray: none; stroke-linecap: butt; stroke-dashoffset: 0; stroke-linejoin: miter; stroke-miterlimit: 4; is-custom-font: none; font-file-url: none; fill: rgb(51,51,51); fill-rule: nonzero; opacity: 1;" transform=" translate(-362.3907, -111.3471)" d="M 347.586 133.709 c 1.817 0.037 3.647 -0.673 5.34 -1.283 c 1.742 -0.631 3.434 -1.39 5.056 -2.288 c 3.24 -1.797 6.247 -4.07 8.856 -6.708 c 5.575 -5.631 9.172 -12.872 10.518 -20.692 c 0.784 -4.549 0.473 -9.069 -0.255 -13.597 c -0.04 -0.261 -0.435 -0.173 -0.397 0.087 c 0.569 3.925 0.321 8.125 -0.396 12.018 c -0.704 3.817 -1.778 7.531 -3.497 11.017 c -3.217 6.525 -8.182 12.048 -14.457 15.71 c -1.695 0.988 -3.468 1.85 -5.287 2.57 c -0.946 0.375 -1.907 0.703 -2.879 0.989 c -0.974 0.285 -1.944 0.499 -2.87 0.922 C 346.716 132.73 346.941 133.695 347.586 133.709" stroke-linecap="round"/>
</g>
<g transform="matrix(6.2476 0 0 6.2476 669.9178 461.3309)" id="OBJECTS">
<path style="stroke: none; stroke-width: 0; stroke-dasharray: none; stroke-linecap: butt; stroke-dashoffset: 0; stroke-linejoin: miter; stroke-miterlimit: 4; is-custom-font: none; font-file-url: none; fill: rgb(51,51,51); fill-rule: nonzero; opacity: 1;" transform=" translate(-348.1425, -117.6925)" d="M 356.693 122.328 c 0.41 -2.468 0.868 -4.959 1.052 -7.457 c 0.036 -0.511 0.046 -1.019 0.052 -1.524 c -0.371 0.752 -0.764 1.511 -1.194 2.274 c 0.49 -1.142 0.866 -2.329 1.177 -3.531 c -0.009 -0.307 -0.01 -0.612 -0.029 -0.917 c -0.04 -0.457 -0.074 -0.914 -0.138 -1.366 c -0.107 -0.352 -0.222 -0.697 -0.357 -1.031 c -0.523 1.865 -1.201 3.569 -1.987 5.292 c 0.84 -2.353 1.044 -4.923 0.562 -7.353 c -0.06 -0.079 -0.179 -0.243 -0.173 -0.233 c -0.101 -0.132 -0.199 -0.264 -0.295 -0.397 c -0.14 -0.188 -0.282 -0.376 -0.419 -0.566 c -0.262 -0.356 -0.525 -0.708 -0.792 -1.06 l -0.243 -0.317 c -0.168 -0.161 -0.338 -0.319 -0.508 -0.474 c 0.156 0.409 0.3 0.82 0.417 1.238 c 2.495 9.55 -7.069 18.424 -15.33 24.683 c 5.886 -3.406 11.614 -6.77 15.333 -12.608 c -2.316 4.165 -5.387 7.334 -9.125 10.707 c 2.747 -1.639 5.772 -3.888 8.049 -6.217 c -1.527 1.988 -3.218 3.854 -5.034 5.447 c 2.613 -1.685 4.731 -3.353 6.456 -5.148 c -0.329 0.447 -0.648 0.899 -0.982 1.341 c -0.596 0.783 -1.958 2.653 -3.271 3.581 c 1.643 -0.892 3.092 -2.107 4.392 -3.473 c -2.56 3.222 -5.511 6.071 -9.205 8.498 c 4.587 -2.001 8.712 -5.254 11.591 -9.388 V 122.328 z" stroke-linecap="round"/>
</g>
<g transform="matrix(6.2476 0 0 6.2476 700.1964 527.0547)" id="OBJECTS">
<path style="stroke: none; stroke-width: 0; stroke-dasharray: none; stroke-linecap: butt; stroke-dashoffset: 0; stroke-linejoin: miter; stroke-miterlimit: 4; is-custom-font: none; font-file-url: none; fill: rgb(51,51,51); fill-rule: nonzero; opacity: 1;" transform=" translate(-352.9892, -128.2119)" d="M 361.062 130.04 c 5.726 -4.019 10.673 -9.877 12.878 -15.579 c -5.104 9.956 -15.947 17.368 -25.135 18.713 c -0.788 0.194 -1.764 -0.268 -2.418 0.296 c -0.3 0.284 -0.338 0.7 -0.201 1.047 c -0.401 -0.033 -0.803 -0.074 -1.174 0.051 c -0.499 0.17 -0.726 0.736 -0.626 1.229 c -0.153 -0.033 -0.308 -0.055 -0.461 -0.092 c -0.134 -0.035 -0.223 -0.054 -0.288 -0.067 c -0.074 -0.016 -0.149 -0.027 -0.223 -0.035 c -0.061 -0.016 -0.121 -0.019 -0.182 -0.023 c -0.003 0 -0.005 -0.001 -0.007 -0.001 c -0.652 -0.035 -1.29 0.609 -1.073 1.308 c 0.014 0.083 0.051 0.16 0.087 0.234 c -2.023 0.643 -4.031 1.33 -6.069 1.924 c -0.574 0.194 -1.439 0.358 -1.743 0.494 c -0.379 0.05 -0.742 0.261 -0.957 0.563 c -0.582 0.154 -1.077 0.346 -1.332 0.637 c -0.207 0.34 -0.078 0.825 0.266 1.02 c 0.383 0.171 0.845 0.069 1.388 -0.084 c 0.709 0.488 1.919 0.207 2.743 0.209 c 2.147 -0.174 4.281 -0.486 6.387 -0.924 c 4.927 -0.901 9.51 -2.702 13.97 -4.813 c -1.887 0.692 -3.762 1.229 -5.642 1.652 c 0.034 -0.008 0.069 -0.015 0.099 -0.024 c 5.514 -1.726 10.332 -5.211 14.739 -8.877 c -3.364 2.307 -7.059 4.409 -10.778 5.749 c 6.071 -2.572 11.317 -7.04 15.447 -12.159 C 367.945 125.439 364.615 128.025 361.062 130.04 M 343.78 138.97 c 0.681 -0.198 1.344 -0.397 1.966 -0.59 c 1.143 0.056 2.419 -0.018 3.63 -0.197 C 347.521 138.529 345.661 138.78 343.78 138.97" stroke-linecap="round"/>
</g>
<g transform="matrix(6.2476 0 0 6.2476 821.3239 251.205)" id="OBJECTS">
<path style="stroke: none; stroke-width: 0; stroke-dasharray: none; stroke-linecap: butt; stroke-dashoffset: 0; stroke-linejoin: miter; stroke-miterlimit: 4; is-custom-font: none; font-file-url: none; fill: rgb(51,51,51); fill-rule: nonzero; opacity: 1;" transform=" translate(-372.3756, -84.061)" d="M 378.535 83.174 c -1.395 -5.319 -5.242 -10.208 -10.655 -13.041 c -0.961 -0.491 -2.144 -1.017 -3.025 -1.414 c 1.291 0.834 2.617 1.668 3.656 2.543 c 2.013 1.688 3.799 3.699 4.996 5.467 c 1.675 2.749 2.274 4.357 3.091 6.543 c 1.968 5.365 2.999 10.484 2.452 16.131 C 380.389 94.069 380.081 88.431 378.535 83.174" stroke-linecap="round"/>
</g>
<g transform="matrix(6.2476 0 0 6.2476 834.6423 218.0086)" id="OBJECTS">
<path style="stroke: none; stroke-width: 0; stroke-dasharray: none; stroke-linecap: butt; stroke-dashoffset: 0; stroke-linejoin: miter; stroke-miterlimit: 4; is-custom-font: none; font-file-url: none; fill: rgb(51,51,51); fill-rule: nonzero; opacity: 1;" transform=" translate(-374.5073, -78.7475)" d="M 369.503 69.534 c -0.409 -0.163 -1.091 -0.424 -1.348 -0.498 c 1.034 0.531 2.039 1.122 2.973 1.815 c 3.297 2.593 5.178 5.516 7.181 9.594 c 0.974 2.179 2.164 4.908 2.526 8.014 C 381.219 80.698 377.081 72.209 369.503 69.534" stroke-linecap="round"/>
</g>
<g transform="matrix(6.2476 0 0 6.2476 675.9985 415.7695)" id="OBJECTS">
<path style="stroke: none; stroke-width: 0; stroke-dasharray: none; stroke-linecap: butt; stroke-dashoffset: 0; stroke-linejoin: miter; stroke-miterlimit: 4; is-custom-font: none; font-file-url: none; fill: rgb(51,51,51); fill-rule: nonzero; opacity: 1;" transform=" translate(-349.1154, -110.4)" d="M 347.963 101.679 c -0.479 -0.442 -1.123 -0.962 -1.572 -1.29 c 0.879 0.955 1.551 1.841 2.249 2.942 c 1.716 2.644 1.986 5.143 1.569 8.454 c 0.108 -0.118 -0.73 3.812 -1.147 4.507 c -0.617 1.487 -1.464 2.877 -2.483 4.119 C 352.443 115.923 354.093 106.676 347.963 101.679" stroke-linecap="round"/>
</g>
<g transform="matrix(6.2476 0 0 6.2476 694.3397 411.9876)" id="OBJECTS">
<path style="stroke: none; stroke-width: 0; stroke-dasharray: none; stroke-linecap: butt; stroke-dashoffset: 0; stroke-linejoin: miter; stroke-miterlimit: 4; is-custom-font: none; font-file-url: none; fill: rgb(51,51,51); fill-rule: nonzero; opacity: 1;" transform=" translate(-352.051, -109.7945)" d="M 351.271 104.575 c -0.11 -0.138 -0.285 -0.356 -0.36 -0.425 c 0.251 0.475 0.48 0.962 0.683 1.46 c 1.351 3.166 0.704 6.461 -0.066 9.829 C 353.5 111.92 354.071 107.829 351.271 104.575" stroke-linecap="round"/>
</g>
<g transform="matrix(6.2476 0 0 6.2476 522.1084 369.2905)" id="OBJECTS">
<path style="stroke: none; stroke-width: 0; stroke-dasharray: none; stroke-linecap: butt; stroke-dashoffset: 0; stroke-linejoin: miter; stroke-miterlimit: 4; is-custom-font: none; font-file-url: none; fill: rgb(51,51,51); fill-rule: nonzero; opacity: 1;" transform=" translate(-324.4851, -103.5591)" d="M 335.95 75.997 c -3.774 2.063 -7.258 4.589 -10.372 7.572 c -3.101 2.972 -6.085 6.206 -8.336 9.887 c -4.722 7.719 -6.531 17.441 -4.278 26.277 c 1.116 4.377 3.33 9.387 7.674 11.367 c 1.29 0.586 2.091 -1.317 0.739 -1.826 c -3.725 -1.399 -5.475 -5.599 -6.464 -9.187 c -1.138 -4.13 -1.362 -8.526 -0.752 -12.763 c 1.191 -8.243 5.269 -16.234 11.214 -22.029 c 3.3 -3.218 7.236 -5.868 11.252 -8.097 C 337.402 76.767 336.725 75.573 335.95 75.997" stroke-linecap="round"/>
</g>
<g transform="matrix(6.2476 0 0 6.2476 499.6338 360.736)" id="OBJECTS">
<path style="stroke: none; stroke-width: 0; stroke-dasharray: none; stroke-linecap: butt; stroke-dashoffset: 0; stroke-linejoin: miter; stroke-miterlimit: 4; is-custom-font: none; font-file-url: none; fill: rgb(51,51,51); fill-rule: nonzero; opacity: 1;" transform=" translate(-321.2178, -100.8143)" d="M 334.686 70.704 c -2.312 1.108 -4.646 2.102 -6.83 3.459 c -2.143 1.335 -4.205 2.807 -6.116 4.462 c -3.881 3.357 -7.248 7.33 -9.73 11.846 c -4.869 8.86 -6.11 19.58 -1.952 28.962 c 2.06 4.645 5.4 9.284 10.108 11.464 c 0.456 0.211 1.051 -0.411 0.583 -0.773 c -1.727 -1.339 -3.452 -2.747 -4.939 -4.357 c -1.516 -1.644 -2.752 -3.49 -3.835 -5.445 c -2.213 -3.989 -3.225 -8.72 -3.121 -13.27 c 0.236 -10.143 5.404 -19.519 12.634 -26.348 c 2.01 -1.898 4.169 -3.658 6.416 -5.26 c 1.091 -0.777 2.199 -1.539 3.304 -2.288 c 1.165 -0.792 2.368 -1.56 3.613 -2.213 C 334.979 70.862 334.843 70.628 334.686 70.704" stroke-linecap="round"/>
</g>
<g transform="matrix(6.2476 0 0 6.2476 563.5698 404.2555)" id="OBJECTS">
<path style="stroke: none; stroke-width: 0; stroke-dasharray: none; stroke-linecap: butt; stroke-dashoffset: 0; stroke-linejoin: miter; stroke-miterlimit: 4; is-custom-font: none; font-file-url: none; fill: rgb(51,51,51); fill-rule: nonzero; opacity: 1;" transform=" translate(-331.1214, -108.557)" d="M 348.756 113.826 c -1.56 -4.379 -6.001 -6.521 -10.035 -8.073 c -4.975 -1.911 -10.337 -2.789 -15.656 -2.739 c -3.003 0.028 -6.116 0.279 -9.034 1.017 c -0.935 0.235 -0.605 1.624 0.334 1.458 c 2.5 -0.446 4.965 -0.848 7.509 -0.943 c 2.503 -0.092 5.013 0.027 7.498 0.358 c 2.46 0.326 4.894 0.888 7.275 1.589 c 2.225 0.657 4.441 1.458 6.474 2.596 c 2.12 1.189 4.056 2.702 5.208 4.898 C 348.447 114.212 348.846 114.079 348.756 113.826" stroke-linecap="round"/>
</g>
<g transform="matrix(6.2476 0 0 6.2476 574.1081 384.7262)" id="OBJECTS">
<path style="stroke: none; stroke-width: 0; stroke-dasharray: none; stroke-linecap: butt; stroke-dashoffset: 0; stroke-linejoin: miter; stroke-miterlimit: 4; is-custom-font: none; font-file-url: none; fill: rgb(51,51,51); fill-rule: nonzero; opacity: 1;" transform=" translate(-332.808, -105.4314)" d="M 349.168 114.607 c 1.221 -2.305 0.748 -5.399 -0.236 -7.693 c -1.022 -2.389 -2.769 -4.361 -4.866 -5.862 c -4.828 -3.452 -11.09 -4.478 -16.883 -4.859 c -3.599 -0.237 -7.19 -0.368 -10.786 0.014 c -1.013 0.108 -0.842 1.546 0.182 1.401 c 2.9 -0.411 5.851 -0.709 8.783 -0.649 c 2.927 0.059 5.87 0.452 8.736 1.043 c 5.029 1.035 10.26 3.117 13.03 7.73 c 0.736 1.226 1.212 2.632 1.378 4.054 c 0.179 1.543 -0.086 2.899 -0.377 4.399 C 348.012 114.787 348.852 115.204 349.168 114.607" stroke-linecap="round"/>
</g>
<g transform="matrix(6.2476 0 0 6.2476 601.4435 378.6428)" id="OBJECTS">
<path style="stroke: none; stroke-width: 0; stroke-dasharray: none; stroke-linecap: butt; stroke-dashoffset: 0; stroke-linejoin: miter; stroke-miterlimit: 4; is-custom-font: none; font-file-url: none; fill: rgb(51,51,51); fill-rule: nonzero; opacity: 1;" transform=" translate(-337.1834, -104.4577)" d="M 358.004 114.599 c -0.827 -5.851 -3.517 -11.547 -8.755 -14.777 c -2.865 -1.767 -6.205 -2.785 -9.451 -3.647 c -3.462 -0.92 -7.004 -1.531 -10.575 -1.868 c -4.051 -0.382 -8.131 -0.382 -12.185 -0.021 c -0.9 0.08 -0.908 1.47 0 1.39 c 6.883 -0.609 13.829 -0.146 20.565 1.367 c 3.252 0.729 6.552 1.613 9.585 2.998 c 2.76 1.258 5.039 3.19 6.707 5.69 c 1.81 2.715 2.969 5.825 3.635 8.991 C 357.594 115.03 358.046 114.897 358.004 114.599" stroke-linecap="round"/>
</g>
<g transform="matrix(6.2476 0 0 6.2476 626.3017 488.8313)" id="OBJECTS">
<path style="stroke: none; stroke-width: 0; stroke-dasharray: none; stroke-linecap: butt; stroke-dashoffset: 0; stroke-linejoin: miter; stroke-miterlimit: 4; is-custom-font: none; font-file-url: none; fill: rgb(51,51,51); fill-rule: nonzero; opacity: 1;" transform=" translate(-341.1619, -122.0944)" d="M 324.357 143.391 c 2.335 -0.428 4.645 -0.681 6.92 -1.395 c 2.183 -0.682 4.326 -1.517 6.409 -2.457 c 3.905 -1.762 7.669 -3.902 11.02 -6.592 c 3.152 -2.529 5.941 -5.644 7.685 -9.332 c 1.917 -4.061 2.544 -8.759 1.432 -13.142 c -0.545 -2.147 -1.539 -4.166 -2.879 -5.921 c -0.652 -0.854 -1.47 -1.593 -2.283 -2.29 c -0.842 -0.724 -1.704 -1.305 -2.816 -1.469 c -0.112 -0.016 -0.178 0.098 -0.107 0.186 c 0.586 0.737 1.275 1.308 1.973 1.932 c 0.694 0.618 1.261 1.305 1.8 2.059 c 1.085 1.514 2.003 3.11 2.568 4.897 c 1.297 4.114 0.925 8.661 -0.831 12.584 c -3.238 7.233 -10.262 11.919 -17.156 15.2 c -2.219 1.056 -4.5 1.984 -6.826 2.775 c -1.13 0.384 -2.295 0.711 -3.408 1.148 c -1.204 0.473 -2.4 0.89 -3.666 1.177 C 323.775 142.848 323.947 143.466 324.357 143.391" stroke-linecap="round"/>
</g>
<g transform="matrix(6.2476 0 0 6.2476 673.7959 272.6914)" id="OBJECTS">
<path style="stroke: none; stroke-width: 0; stroke-dasharray: none; stroke-linecap: butt; stroke-dashoffset: 0; stroke-linejoin: miter; stroke-miterlimit: 4; is-custom-font: none; font-file-url: none; fill: rgb(51,51,51); fill-rule: nonzero; opacity: 1;" transform=" translate(-348.7641, -88.0977)" d="M 376.931 86.105 c -2.107 -9.243 -8.99 -15.268 -17.96 -17.523 c 1.726 0.616 3.486 1.494 5.136 2.518 c -0.132 -0.056 -0.265 -0.111 -0.383 -0.148 c -3.203 -1.335 -6.422 -2.074 -9.609 -2.316 c 0.031 -0.216 -0.021 -0.444 -0.185 -0.599 c -0.412 -0.311 -0.36 -0.154 -0.575 -0.217 c -11.225 -1.564 -21.173 3.908 -29.23 11.313 c 5.732 -4.406 11.696 -7.659 18.063 -9.156 c -8.613 2.561 -16.487 8.307 -22.542 15.306 c 10.531 -9.812 24.811 -17.684 38.558 -14.179 c -0.313 -0.067 -0.622 -0.132 -0.934 -0.19 c -3.182 -0.622 -7.687 -0.786 -11.627 0.059 c -7.426 1.453 -14.069 5.732 -19.47 10.911 c 11.208 -8.671 24.615 -12.472 36.332 -7.212 c 1.757 0.779 4.425 2.37 5.841 3.339 c 0.194 0.199 0.36 0.418 0.544 0.625 c -2.16 -1.716 -4.783 -3.074 -7.798 -4.018 c 2.323 1.183 4.731 2.422 6.351 3.939 c 3.961 3.512 6.177 8.117 6.708 12.453 c 0.203 1.364 0.123 2.774 0.23 4.127 c 0.227 0.644 1.258 0.438 1.234 -0.249 c 0.249 -2.953 -0.088 -5.671 -0.926 -8.119 c -0.154 -0.81 -0.365 -1.611 -0.653 -2.389 c -0.009 -0.019 -0.018 -0.037 -0.025 -0.055 c 0.074 -0.023 0.148 -0.055 0.217 -0.092 c 1.194 3.119 1.956 6.395 2.407 9.679 c 0.079 1.276 0.095 2.547 0.043 3.801 c -0.088 2.684 -0.257 4.702 -1.074 7.27 c -0.01 0.028 -0.001 0.008 0.025 -0.061 c 0.069 -0.082 -0.13 0.28 -0.136 0.447 c -0.18 0.622 -0.368 1.243 -0.535 1.869 c -0.074 0.359 -0.323 0.732 -0.11 1.085 c 1.629 1.975 2.661 -5.792 2.782 -6.452 C 378.171 96.227 377.797 90.932 376.931 86.105 M 367.558 74.187 c 0.055 -0.107 0.101 -0.22 0.118 -0.339 c 0.513 0.483 0.983 0.998 1.392 1.478 C 368.581 74.922 368.077 74.545 367.558 74.187" stroke-linecap="round"/>
</g>
<g transform="matrix(6.2476 0 0 6.2476 465.8093 380.0075)" id="OBJECTS">
<path style="stroke: none; stroke-width: 0; stroke-dasharray: none; stroke-linecap: butt; stroke-dashoffset: 0; stroke-linejoin: miter; stroke-miterlimit: 4; is-custom-font: none; font-file-url: none; fill: rgb(51,51,51); fill-rule: nonzero; opacity: 1;" transform=" translate(-315.474, -104.6766)" d="M 315.308 122.458 c -0.835 -2.077 -1.516 -4.22 -1.987 -6.41 c -1.499 -6.27 -0.632 -14.152 1.908 -20.074 c 1.835 -4.425 4.625 -8.185 7.587 -11.749 c -3.991 4.007 -7.873 8.321 -10.025 13.647 c -2.434 5.692 -2.938 12.156 -1.678 18.225 c -3.138 -9.12 0.104 -20.526 6.983 -28.987 c -8.851 8.8 -13.573 22.992 -6.631 33.546 c 0.265 0.379 0.456 0.835 0.793 1.148 c 0.196 0.173 0.449 0.191 0.674 0.116 c 0.583 1.497 1.493 4.066 2.815 2.924 c 0.451 -0.438 0.26 -1.048 -0.032 -1.514 C 315.632 123.218 315.383 122.63 315.308 122.458" stroke-linecap="round"/>
</g>
<g transform="matrix(6.2476 0 0 6.2476 576.8438 384.1515)" id="OBJECTS">
<path style="stroke: none; stroke-width: 0; stroke-dasharray: none; stroke-linecap: butt; stroke-dashoffset: 0; stroke-linejoin: miter; stroke-miterlimit: 4; is-custom-font: none; font-file-url: none; fill: rgb(51,51,51); fill-rule: nonzero; opacity: 1;" transform=" translate(-333.2459, -105.3393)" d="M 349.654 111.506 c 0.045 0.115 -0.108 -0.307 -0.217 -0.503 c -0.029 -0.062 -0.06 -0.129 -0.094 -0.185 c -0.191 -0.316 -0.41 -0.616 -0.642 -0.908 c 0.187 -0.159 0.329 -0.373 0.391 -0.605 c 0.195 -0.72 -0.338 -1.285 -0.76 -1.813 c 0.06 -0.142 0.097 -0.291 0.099 -0.444 c -0.064 -0.749 -0.623 -1.362 -1.039 -1.952 c -1.081 -1.42 -2.479 -2.549 -3.986 -3.481 c -6.944 -4.209 -15.875 -4.835 -25.272 -3.174 c 3.082 -0.32 7.382 -0.11 9.639 0.26 c 3.756 0.39 9.222 2.342 10.225 2.863 c 0.117 0.047 0.239 0.098 0.357 0.15 c -4.971 -1.54 -10.308 -1.928 -15.462 -1.396 c 5.161 -0.078 10.638 1.026 15.365 3.136 c -2.746 -0.835 -5.595 -1.314 -8.449 -1.596 c -4.397 -0.395 -8.756 0.102 -13.043 0.919 c 11.038 -1.024 24.918 1.842 30.367 9.089 c 0.53 0.671 0.067 0.288 0.726 0.961 C 348.74 113.598 350.047 112.514 349.654 111.506" stroke-linecap="round"/>
</g>
<g transform="matrix(6.2476 0 0 6.2476 469.2741 598.7619)" id="OBJECTS">
<path style="stroke: none; stroke-width: 0; stroke-dasharray: none; stroke-linecap: butt; stroke-dashoffset: 0; stroke-linejoin: miter; stroke-miterlimit: 4; is-custom-font: none; font-file-url: none; fill: rgb(51,51,51); fill-rule: nonzero; opacity: 1;" transform=" translate(-316.029, -139.6885)" d="M 333.969 135.026 c -0.842 0.262 -1.686 0.513 -2.53 0.753 c -10.929 2.993 -22.228 5.53 -33.35 6.692 c 6.383 0.321 12.418 0.04 18.267 -1.058 c -3.5 0.809 -7.001 1.616 -10.516 2.356 c 4.191 -0.124 8.401 -0.423 12.483 -1.434 c 0.139 -0.031 0.277 -0.071 0.417 -0.105 c -2.41 0.799 -4.827 1.568 -7.309 2.121 c 7.314 -0.015 14.1 -3.044 20.58 -5.81 c -2.79 0.781 -5.616 1.432 -8.413 2.193 c 2.004 -0.723 3.965 -1.524 5.801 -2.253 c -3.083 0.645 -6.153 1.345 -9.224 2.053 c 4.194 -1.164 7.991 -2.779 11.89 -4.626 C 332.682 135.624 333.437 135.282 333.969 135.026" stroke-linecap="round"/>
</g>
<g transform="matrix(6.2476 0 0 6.2476 449.7243 468.6779)" id="OBJECTS">
<path style="stroke: none; stroke-width: 0; stroke-dasharray: none; stroke-linecap: butt; stroke-dashoffset: 0; stroke-linejoin: miter; stroke-miterlimit: 4; is-custom-font: none; font-file-url: none; fill: rgb(51,51,51); fill-rule: nonzero; opacity: 1;" transform=" translate(-312.8994, -118.8684)" d="M 319.33 130.739 c -0.748 -0.422 -1.93 -1.319 -2.146 -1.494 c -6.64 -5.185 -11.853 -14.954 -10.604 -23.642 c -2.242 9.626 3.679 21.495 11.997 26.429 c 0.405 0.25 0.974 0.016 1.093 -0.447 C 319.761 131.267 319.614 130.902 319.33 130.739" stroke-linecap="round"/>
</g>
<g transform="matrix(6.2476 0 0 6.2476 441.9709 496.9447)" id="OBJECTS">
<path style="stroke: none; stroke-width: 0; stroke-dasharray: none; stroke-linecap: butt; stroke-dashoffset: 0; stroke-linejoin: miter; stroke-miterlimit: 4; is-custom-font: none; font-file-url: none; fill: rgb(51,51,51); fill-rule: nonzero; opacity: 1;" transform=" translate(-311.6584, -123.3924)" d="M 317.493 131.952 c -0.274 -0.589 -0.379 -0.445 -0.954 -1.058 c -5.538 -4.442 -9.529 -9.93 -10.746 -17.066 c 0.457 5.696 2.787 11.304 6.572 15.575 c 1.52 1.588 2.603 2.817 4.262 3.54 C 317.164 133.055 317.653 132.468 317.493 131.952" stroke-linecap="round"/>
</g>
<g transform="matrix(6.2476 0 0 6.2476 437.7165 527.9081)" id="OBJECTS">
<path style="stroke: none; stroke-width: 0; stroke-dasharray: none; stroke-linecap: butt; stroke-dashoffset: 0; stroke-linejoin: miter; stroke-miterlimit: 4; is-custom-font: none; font-file-url: none; fill: rgb(51,51,51); fill-rule: nonzero; opacity: 1;" transform=" translate(-310.9774, -128.3481)" d="M 314.073 132.145 c -2.769 -2.659 -4.842 -5.359 -6.579 -8.822 c 0.886 2.746 2.509 5.968 4.114 7.889 c 0.603 0.765 1.544 1.864 2.072 2.123 C 314.494 133.572 314.748 132.647 314.073 132.145" stroke-linecap="round"/>
</g>
<g transform="matrix(6.2476 0 0 6.2476 303.6772 456.8222)" id="OBJECTS">
<path style="stroke: none; stroke-width: 0; stroke-dasharray: none; stroke-linecap: butt; stroke-dashoffset: 0; stroke-linejoin: miter; stroke-miterlimit: 4; is-custom-font: none; font-file-url: none; fill: rgb(51,51,51); fill-rule: nonzero; opacity: 1;" transform=" translate(-289.5243, -116.9707)" d="M 302.287 106.21 c -1.134 0.328 -2.236 0.839 -3.33 1.279 c -1.112 0.446 -2.22 0.898 -3.32 1.37 c -2.191 0.934 -4.357 1.933 -6.455 3.07 c -4.057 2.202 -8.216 4.948 -11.147 8.587 c -1.608 1.996 -2.818 4.301 -2.282 6.932 c 0.104 0.512 0.816 0.358 0.852 -0.111 c 0.169 -2.17 1.388 -4.18 2.807 -5.765 c 1.456 -1.63 3.132 -3.092 4.891 -4.383 c 3.572 -2.625 7.56 -4.629 11.609 -6.392 c 1.166 -0.507 2.343 -0.995 3.522 -1.469 c 1.171 -0.471 2.403 -0.869 3.534 -1.431 C 303.899 107.434 303.271 105.925 302.287 106.21" stroke-linecap="round"/>
</g>
<g transform="matrix(6.2476 0 0 6.2476 281.1746 474.2904)" id="OBJECTS">
<path style="stroke: none; stroke-width: 0; stroke-dasharray: none; stroke-linecap: butt; stroke-dashoffset: 0; stroke-linejoin: miter; stroke-miterlimit: 4; is-custom-font: none; font-file-url: none; fill: rgb(51,51,51); fill-rule: nonzero; opacity: 1;" transform=" translate(-285.9229, -119.7671)" d="M 305.071 96.62 c -2.691 0.443 -5.36 1.131 -8 1.819 c -2.64 0.688 -5.269 1.455 -7.836 2.388 c -4.538 1.647 -8.916 3.829 -12.728 6.846 c -7.161 5.667 -12.335 14.914 -9.973 24.312 c 1.159 4.606 4.097 9.118 8.599 10.904 c 0.551 0.218 0.791 -0.617 0.368 -0.913 c -3.295 -2.309 -5.874 -5.504 -7.102 -9.405 c -1.299 -4.12 -0.962 -8.549 0.516 -12.575 c 3.249 -8.845 11.342 -14.477 19.766 -17.631 c 2.683 -1.005 5.435 -1.809 8.216 -2.493 c 2.825 -0.698 5.701 -1.196 8.511 -1.951 C 306.249 97.695 305.897 96.484 305.071 96.62" stroke-linecap="round"/>
</g>
<g transform="matrix(6.2476 0 0 6.2476 301.2071 439.2721)" id="OBJECTS">
<path style="stroke: none; stroke-width: 0; stroke-dasharray: none; stroke-linecap: butt; stroke-dashoffset: 0; stroke-linejoin: miter; stroke-miterlimit: 4; is-custom-font: none; font-file-url: none; fill: rgb(51,51,51); fill-rule: nonzero; opacity: 1;" transform=" translate(-289.129, -114.1619)" d="M 304.119 98.563 c -3.483 0.886 -6.956 1.941 -10.349 3.131 c -3.134 1.099 -6.179 2.455 -9.013 4.198 c -5.282 3.248 -10.46 8.224 -11.265 14.732 c -0.393 3.181 0.521 7.279 3.433 9.056 c 0.657 0.402 1.186 -0.48 0.765 -1.011 c -0.875 -1.097 -1.679 -2.217 -2.131 -3.567 c -0.456 -1.368 -0.587 -2.802 -0.441 -4.235 c 0.31 -3.024 1.797 -5.851 3.664 -8.193 c 1.831 -2.296 4.016 -4.31 6.471 -5.908 c 2.609 -1.696 5.465 -2.972 8.383 -4.023 c 3.531 -1.273 7.169 -2.063 10.788 -3.019 C 305.167 99.53 304.865 98.373 304.119 98.563" stroke-linecap="round"/>
</g>
<g transform="matrix(6.2476 0 0 6.2476 447.0469 496.688)" id="OBJECTS">
<path style="stroke: none; stroke-width: 0; stroke-dasharray: none; stroke-linecap: butt; stroke-dashoffset: 0; stroke-linejoin: miter; stroke-miterlimit: 4; is-custom-font: none; font-file-url: none; fill: rgb(51,51,51); fill-rule: nonzero; opacity: 1;" transform=" translate(-312.4723, -123.3515)" d="M 275.172 127.085 c 0.377 0.618 0.666 1.302 0.877 2 c 2.397 1.688 5.281 2.749 8.086 3.588 c 5.987 1.79 12.404 2.32 18.646 2.185 c 12.313 -0.265 24.478 -3.669 35.165 -9.663 c 2.638 -1.479 5.125 -3.19 7.281 -5.299 c 1.056 -1.032 2.001 -2.161 2.834 -3.374 c 0.869 -1.262 1.383 -2.67 1.779 -4.135 c 0.139 -0.514 -0.636 -0.79 -0.889 -0.323 c -5.085 9.409 -15.672 14.816 -25.694 17.815 c -11.207 3.354 -23.255 4.337 -34.799 2.195 c -3.287 -0.611 -6.505 -1.548 -9.496 -3.033 c -1.365 -0.676 -2.8 -1.6 -3.831 -2.787 c -0.008 0.114 -0.022 0.226 -0.03 0.341 c -0.008 0.13 -0.01 0.263 -0.013 0.392 C 275.112 127.024 275.149 127.047 275.172 127.085" stroke-linecap="round"/>
</g>
<g transform="matrix(6.2476 0 0 6.2476 386.6428 625.307)" id="OBJECTS">
<path style="stroke: none; stroke-width: 0; stroke-dasharray: none; stroke-linecap: butt; stroke-dashoffset: 0; stroke-linejoin: miter; stroke-miterlimit: 4; is-custom-font: none; font-file-url: none; fill: rgb(51,51,51); fill-rule: nonzero; opacity: 1;" transform=" translate(-302.8041, -143.9372)" d="M 270.919 139.979 c 0.725 0.704 1.413 1.423 2.218 2.037 c 0.82 0.626 1.686 1.179 2.581 1.694 c 1.778 1.019 3.661 1.861 5.599 2.553 c 3.895 1.392 8.011 2.113 12.173 2.338 c 8.704 0.469 17.559 -0.756 26.069 -2.97 c 5.109 -1.329 10.099 -3.119 15.003 -5.123 c 0.412 -0.167 0.277 -0.825 -0.164 -0.677 c -8.5 2.881 -17.269 4.906 -26.047 6.488 c -8.356 1.505 -16.813 1.6 -24.848 -0.884 c -2.147 -0.663 -4.224 -1.517 -6.201 -2.561 c -1.016 -0.535 -1.983 -1.139 -2.952 -1.748 c -0.962 -0.605 -1.952 -1.187 -2.855 -1.874 C 271.086 138.943 270.558 139.628 270.919 139.979" stroke-linecap="round"/>
</g>
<g transform="matrix(6.2476 0 0 6.2476 439.2708 519.6607)" id="OBJECTS">
<path style="stroke: none; stroke-width: 0; stroke-dasharray: none; stroke-linecap: butt; stroke-dashoffset: 0; stroke-linejoin: miter; stroke-miterlimit: 4; is-custom-font: none; font-file-url: none; fill: rgb(51,51,51); fill-rule: nonzero; opacity: 1;" transform=" translate(-311.2279, -127.0284)" d="M 352.987 115.109 c -0.748 1.122 -1.595 2.194 -2.393 3.282 c -0.795 1.086 -1.67 2.111 -2.603 3.077 c -1.884 1.949 -4.013 3.601 -6.268 5.078 c -4.723 3.095 -9.968 5.264 -15.32 6.934 c -12.395 3.868 -25.499 4.919 -38.355 3.361 c -6.597 -0.799 -13.443 -2.344 -18.981 -6.268 c -0.225 -0.158 -0.514 0.224 -0.294 0.395 c 4.821 3.758 10.585 5.908 16.518 6.971 c 6.5 1.164 13.148 1.449 19.734 1.051 c 6.649 -0.401 13.265 -1.548 19.677 -3.394 c 5.621 -1.618 11.183 -3.724 16.231 -6.751 c 2.682 -1.606 5.198 -3.51 7.444 -5.707 c 1.113 -1.087 2.147 -2.256 3.087 -3.503 c 0.444 -0.588 0.857 -1.193 1.242 -1.822 c 0.432 -0.71 0.701 -1.507 1.014 -2.279 C 353.928 115.028 353.299 114.639 352.987 115.109" stroke-linecap="round"/>
</g>
<g transform="matrix(6.2476 0 0 6.2476 294.2938 436.2433)" id="OBJECTS">
<path style="stroke: none; stroke-width: 0; stroke-dasharray: none; stroke-linecap: butt; stroke-dashoffset: 0; stroke-linejoin: miter; stroke-miterlimit: 4; is-custom-font: none; font-file-url: none; fill: rgb(51,51,51); fill-rule: nonzero; opacity: 1;" transform=" translate(-288.0225, -113.677)" d="M 292.856 108.046 c -2.074 0.74 -4.127 1.569 -6.095 2.559 c 3.967 -2.879 8.377 -5.257 11.971 -6.405 c -7.57 1.788 -14.563 4.992 -19.682 9.991 c -0.643 0.581 -1.32 1.335 -1.958 2.166 c 1.087 -1.441 2.367 -2.648 3.94 -4.086 c 5.381 -4.907 12.414 -8.742 19.966 -10.623 c -11.135 1.47 -23.768 7.359 -27.022 17.844 c -0.227 0.533 0.291 1.036 0.764 0.866 c -0.38 0.962 -0.575 1.853 -0.475 2.553 c 0.003 0.496 0.294 0.8 0.651 0.917 c -0.1 0.335 -0.179 0.673 -0.187 1.018 c 0.043 0.685 0.903 1.084 1.469 0.726 c 0.703 -0.641 0.347 -0.538 0.835 -1.343 c 2.832 -6.407 6.878 -9.815 12.952 -13.283 c 4.001 -2.155 7.784 -4.376 12.139 -5.431 C 298.944 105.919 295.872 106.995 292.856 108.046" stroke-linecap="round"/>
</g>
<g transform="matrix(6.2476 0 0 6.2476 444.3246 580.3474)" id="OBJECTS">
<path style="stroke: none; stroke-width: 0; stroke-dasharray: none; stroke-linecap: butt; stroke-dashoffset: 0; stroke-linejoin: miter; stroke-miterlimit: 4; is-custom-font: none; font-file-url: none; fill: rgb(51,51,51); fill-rule: nonzero; opacity: 1;" transform=" translate(-312.036, -136.7412)" d="M 332.821 133.591 c -8.238 2.545 -18.863 4.612 -25.747 5.379 c -6.591 0.728 -13.296 1.485 -19.907 0.6 c 15.536 3.555 31.842 0.477 46.294 -5.788 c 1.142 -0.459 2.33 -0.932 3.444 -1.373 C 335.547 132.809 334.183 133.201 332.821 133.591" stroke-linecap="round"/>
</g>
<g transform="matrix(6.2476 0 0 6.2476 200.0688 506.7384)" id="OBJECTS">
<path style="stroke: none; stroke-width: 0; stroke-dasharray: none; stroke-linecap: butt; stroke-dashoffset: 0; stroke-linejoin: miter; stroke-miterlimit: 4; is-custom-font: none; font-file-url: none; fill: rgb(51,51,51); fill-rule: nonzero; opacity: 1;" transform=" translate(-272.941, -124.96)" d="M 268.494 121.841 c 0.401 -1.534 1.079 -3.638 1.443 -4.402 c 0.762 -1.511 1.69 -2.651 2.117 -3.221 c 0.019 -0.028 0.043 -0.055 0.064 -0.083 c -0.291 0.318 -0.587 0.631 -0.874 0.952 c -0.83 0.93 -1.703 2.049 -2.733 2.867 c -0.032 0.08 -0.062 0.162 -0.095 0.244 c -0.443 1.632 -0.928 3.257 -1.445 4.867 c -0.269 0.838 -0.519 1.677 -0.782 2.514 c -0.018 0.139 -0.039 0.278 -0.057 0.418 c 1.061 6.092 8.238 8.605 13.618 9.788 C 272.37 133.301 266.276 128.694 268.494 121.841" stroke-linecap="round"/>
</g>
<g transform="matrix(6.2476 0 0 6.2476 234.6957 509.5693)" id="OBJECTS">
<path style="stroke: none; stroke-width: 0; stroke-dasharray: none; stroke-linecap: butt; stroke-dashoffset: 0; stroke-linejoin: miter; stroke-miterlimit: 4; is-custom-font: none; font-file-url: none; fill: rgb(51,51,51); fill-rule: nonzero; opacity: 1;" transform=" translate(-278.4832, -125.413)" d="M 280.901 132.896 c -7.577 -2.69 -9.562 -8.244 -7.823 -16.164 c -3.603 8.496 -0.505 15.245 8.702 16.929 c 1.164 0.195 2.46 0.345 3.573 0.433 C 283.85 133.773 282.348 133.419 280.901 132.896" stroke-linecap="round"/>
</g>
<g transform="matrix(6.2476 0 0 6.2476 210.7286 521.6219)" id="OBJECTS">
<path style="stroke: none; stroke-width: 0; stroke-dasharray: none; stroke-linecap: butt; stroke-dashoffset: 0; stroke-linejoin: miter; stroke-miterlimit: 4; is-custom-font: none; font-file-url: none; fill: rgb(51,51,51); fill-rule: nonzero; opacity: 1;" transform=" translate(-274.647, -127.342)" d="M 275.861 131.983 c -3.262 -2.421 -5.735 -6.825 -5.287 -11.336 c -1.744 5.745 1.723 11.129 7.213 12.931 c 0.435 0.161 1.035 0.356 1.387 0.459 C 278.025 133.455 276.653 132.634 275.861 131.983" stroke-linecap="round"/>
</g>
<g transform="matrix(6.2476 0 0 6.2476 189.2114 526.5152)" id="OBJECTS">
<path style="stroke: none; stroke-width: 0; stroke-dasharray: none; stroke-linecap: butt; stroke-dashoffset: 0; stroke-linejoin: miter; stroke-miterlimit: 4; is-custom-font: none; font-file-url: none; fill: rgb(51,51,51); fill-rule: nonzero; opacity: 1;" transform=" translate(-271.203, -128.125)" d="M 269.371 125.113 c 0.022 2.305 2.369 5.275 3.664 6.024 C 271.542 129.383 270.076 127.356 269.371 125.113" stroke-linecap="round"/>
</g>
<g transform="matrix(6.2476 0 0 6.2476 467.4734 357.9959)" id="OBJECTS">
<path style="stroke: none; stroke-width: 0; stroke-dasharray: none; stroke-linecap: butt; stroke-dashoffset: 0; stroke-linejoin: miter; stroke-miterlimit: 4; is-custom-font: none; font-file-url: none; fill: rgb(51,51,51); fill-rule: nonzero; opacity: 1;" transform=" translate(-315.7406, -101.7515)" d="M 328.009 69.885 c -2.084 1.204 -4.031 2.661 -5.951 4.118 c -1.894 1.441 -3.72 2.994 -5.438 4.646 c -3.444 3.31 -6.523 7.106 -8.887 11.275 c -4.84 8.528 -6.412 18.961 -4.356 28.548 c 0.577 2.687 1.446 5.303 2.595 7.797 c 0.571 1.244 1.229 2.443 1.962 3.597 c 0.758 1.189 1.679 2.264 2.42 3.46 c 0.608 0.984 2.04 -0.138 1.234 -0.947 c -0.84 -0.843 -1.447 -1.898 -2.047 -2.922 c -0.596 -1.02 -1.143 -2.071 -1.647 -3.142 c -1.011 -2.142 -1.801 -4.382 -2.379 -6.681 c -1.144 -4.549 -1.442 -9.319 -0.948 -13.983 c 0.979 -9.267 5.479 -18.199 11.704 -25.023 c 1.753 -1.922 3.646 -3.697 5.688 -5.303 c 2.101 -1.653 4.378 -2.983 6.7 -4.287 C 329.403 70.623 328.746 69.459 328.009 69.885" stroke-linecap="round"/>
</g>
</svg>